<svg width="108" height="33" fill="none" xmlns="http://www.w3.org/2000/svg"><path d="M25.49.531C14.367.531 4.713 6.723.189 15.801a1.833 1.833 0 000 1.62c4.522 9.086 14.174 15.29 25.3 15.29 11.127 0 20.78-6.204 25.301-15.29a1.833 1.833 0 000-1.62C46.265 6.724 36.612.532 25.49.532zm-7.3 4.637c-3.625 2.454-6.03 6.673-6.03 11.453 0 4.78 2.405 8.999 6.03 11.453-6.282-1.865-11.455-6.055-14.433-11.453 2.978-5.4 8.151-9.59 14.434-11.453zm14.598 0c6.283 1.864 11.456 6.053 14.434 11.453-2.978 5.398-8.151 9.588-14.434 11.453C36.414 25.62 38.82 21.4 38.82 16.62s-2.405-8.999-6.03-11.453zM25.49 6.49c5.461 0 9.852 4.515 9.852 10.131 0 5.616-4.39 10.13-9.852 10.13-5.462 0-9.853-4.514-9.853-10.13 0-5.616 4.39-10.13 9.852-10.13zm57-5.959c-11.123 0-20.776 6.192-25.301 15.27a1.833 1.833 0 000 1.62c4.522 9.086 14.174 15.29 25.3 15.29 11.127 0 20.779-6.204 25.301-15.29a1.83 1.83 0 000-1.62C103.265 6.724 93.612.532 82.49.532zm-7.3 4.637c-3.625 2.454-6.03 6.673-6.03 11.453 0 4.78 2.405 8.999 6.03 11.453-6.282-1.865-11.455-6.055-14.433-11.453 2.978-5.4 8.151-9.59 14.434-11.453zm14.598 0c6.283 1.864 11.456 6.053 14.434 11.453-2.978 5.398-8.151 9.588-14.434 11.453C93.414 25.62 95.82 21.4 95.82 16.62s-2.405-8.999-6.03-11.453zM82.49 6.49c5.461 0 9.852 4.515 9.852 10.131 0 5.616-4.39 10.13-9.852 10.13-5.462 0-9.853-4.514-9.853-10.13 0-5.616 4.39-10.13 9.853-10.13z" fill="#F1F1F1"/></svg>