<svg width="26" height="28" fill="none" xmlns="http://www.w3.org/2000/svg"><path d="M12.996 9.093c-2.387 0-4.335 2.044-4.335 4.549 0 2.505 1.948 4.55 4.335 4.55 2.388 0 4.336-2.045 4.336-4.55s-1.948-4.55-4.336-4.55zm13.002 4.549c0-1.884.017-3.75-.084-5.631-.1-2.184-.576-4.123-2.098-5.72C22.291.691 20.447.196 18.366.09 16.57-.016 14.792 0 13 0c-1.795 0-3.574-.017-5.366.089-2.082.106-3.929.604-5.45 2.201C.657 3.891.185 5.827.085 8.011-.015 9.895 0 11.76 0 13.64c0 1.881-.016 3.752.085 5.632.1 2.184.575 4.123 2.097 5.72 1.525 1.6 3.37 2.095 5.45 2.201 1.796.106 3.575.089 5.367.089 1.795 0 3.574.017 5.366-.089 2.081-.106 3.928-.604 5.45-2.201 1.526-1.6 1.997-3.536 2.098-5.72.104-1.88.084-3.747.084-5.631zm-13.002 7c-3.69 0-6.67-3.127-6.67-7 0-3.874 2.98-7 6.67-7 3.692 0 6.67 3.126 6.67 7 0 3.873-2.978 7-6.67 7zM19.94 7.99c-.862 0-1.558-.73-1.558-1.634 0-.905.696-1.635 1.558-1.635.862 0 1.558.73 1.558 1.635 0 .214-.04.427-.119.626a1.64 1.64 0 01-.337.53 1.553 1.553 0 01-.506.354 1.464 1.464 0 01-.596.124z" fill="#252525"/></svg>