<svg width="76" height="16" fill="none" xmlns="http://www.w3.org/2000/svg"><path d="M.543 7.656a4.66 4.66 0 01-.059-1.133c.026-.39.04-.768.04-1.132 0-.352-.027-.723-.079-1.114a116.33 116.33 0 00-.117-1.152 14.081 14.081 0 01-.038-.996c.013-.313.059-.553.137-.723.104-.195.234-.345.39-.449.157-.117.306-.247.45-.39.169.025.319.078.449.156.143.065.26.156.351.273a.854.854 0 01.215.332.552.552 0 01.04.352c.325.195.585.462.78.8.209.326.365.69.47 1.094.116.39.195.808.234 1.25.052.443.09.88.117 1.309.039.43.071.84.098 1.23a5 5 0 00.195.996A50.718 50.718 0 005.66 6.152c.404-.65.807-1.27 1.211-1.855.404-.6.853-1.205 1.348-1.817A28.55 28.55 0 0110.152.41c.17.026.3.059.391.098l.273.117c.092.04.19.072.293.098.104.013.248.006.43-.02.065.156.11.274.137.352.039.065.071.13.097.195a1210.432 1210.432 0 01.274.723c.039.052.052.123.039.215a1.1 1.1 0 01-.02.214.842.842 0 00-.02.157c.014.039.06.039.138 0a1.926 1.926 0 01-.254.605.977.977 0 00-.157.625c-.351.469-.742.95-1.171 1.445-.43.495-.86 1.016-1.29 1.563a28.17 28.17 0 00-1.25 1.68c-.39.572-.722 1.184-.996 1.835-.078 0-.136.02-.175.06-.04.038-.079.084-.118.136a1.027 1.027 0 01-.097.156c-.026.052-.078.078-.156.078-.027.417-.183.814-.47 1.192a6.67 6.67 0 01-.84.937c.027.104.04.189.04.254s-.007.13-.02.195a6.775 6.775 0 00-.039.215c0 .065.007.15.02.254a2.313 2.313 0 01-.469.781 1.858 1.858 0 01-.605.47c-.222.103-.45.142-.684.116a1.282 1.282 0 01-.664-.234.735.735 0 01-.234-.215 2.014 2.014 0 00-.215-.254 1.244 1.244 0 00-.215-.234.468.468 0 00-.254-.156c.026-.13.026-.267 0-.41a1.73 1.73 0 00-.078-.391 1.229 1.229 0 00-.137-.293c-.052-.078-.104-.117-.156-.117a13.826 13.826 0 00-.215-1.055 29.94 29.94 0 00-.254-1.152A18.2 18.2 0 01.836 9.53a5.567 5.567 0 01-.059-1.015.624.624 0 00-.097-.41 1.513 1.513 0 01-.137-.45zm21.035-3.652a.586.586 0 010 .215.37.37 0 01-.02.117v.137c0 .039.014.104.04.195-.274.443-.593.749-.957.918a5.176 5.176 0 01-1.153.351c-.416.066-.846.137-1.289.215-.43.078-.86.248-1.289.508a.586.586 0 00-.469 0c-.13.065-.325.085-.585.059a.736.736 0 01-.293.176 3.538 3.538 0 00-.352.097.72.72 0 01.059.371c0 .117.02.215.058.293.456.04.957.033 1.504-.02a24.05 24.05 0 011.64-.097c.014.065.007.11-.019.137-.026.013-.032.045-.02.097.092.066.183.15.274.254l.273.274c.092.09.183.17.274.234a.63.63 0 00.351.059.98.98 0 01.098.351.621.621 0 01-.039.371 18.59 18.59 0 00-.625.45 5.56 5.56 0 01-.664.39 3.988 3.988 0 01-.723.293 2.835 2.835 0 01-.84.078h-.156c-.026 0-.065-.02-.117-.058-.104.065-.254.084-.45.058-.181-.026-.325-.006-.429.059a1.102 1.102 0 00-.527-.078c-.195 0-.371-.026-.527-.078a6.742 6.742 0 00-.567.879c-.17.312-.319.644-.45.996.444.065.808.09 1.095.078.3-.013.579-.033.84-.059.26-.039.527-.071.8-.097.274-.04.619-.053 1.035-.04.26-.143.567-.234.918-.273.365-.052.697-.13.996-.234.105.039.196.11.274.215.078.09.15.182.215.273.078.078.156.15.234.215a.373.373 0 00.293.078.35.35 0 01.098.195c.026.065.045.13.058.196a.696.696 0 00.059.175c.039.04.098.052.176.04-.196.43-.424.761-.684.995a2.59 2.59 0 01-.86.508 6.1 6.1 0 01-1.093.274c-.39.065-.827.143-1.309.234a.434.434 0 01-.293-.02.867.867 0 00-.273-.038c-.3.065-.658.123-1.074.175-.417.052-.84.072-1.27.059a5.391 5.391 0 01-1.23-.176c-.39-.091-.71-.26-.957-.508a.713.713 0 01-.215-.312c-.026-.13-.11-.228-.254-.293a5.33 5.33 0 00-.078-.567 61.064 61.064 0 01-.117-.644c-.04-.234-.072-.462-.098-.684-.013-.221 0-.423.04-.605.038-.195.116-.371.233-.527a.573.573 0 00.137-.508c.065-.013.104-.046.117-.098.013-.065.065-.091.157-.078.078-.234.162-.456.254-.664.09-.208.182-.41.273-.606.104-.195.202-.39.293-.586.104-.208.202-.436.293-.683a1.774 1.774 0 01-.41-.547 3.92 3.92 0 01-.176-.606 10.387 10.387 0 01-.098-.625 4.018 4.018 0 00-.136-.664c.13-.195.286-.351.468-.468.196-.13.404-.235.625-.313a5.29 5.29 0 01.723-.195c.26-.052.534-.11.82-.176.521-.17.983-.3 1.387-.39.417-.092.82-.163 1.21-.215.405-.065.821-.124 1.25-.176.43-.052.919-.13 1.466-.235.117.118.228.176.332.176.052-.117.11-.15.176-.097.078.039.11 0 .097-.118.13.222.293.41.489.567.208.143.436.267.683.37zm2.48 8.965a9.81 9.81 0 01-.39 1.191 3.48 3.48 0 01-.488.82c-.17-.026-.287-.006-.352.06a1.4 1.4 0 01-.215.175c-.117.026-.201.026-.254 0a.52.52 0 01-.136-.098 4.05 4.05 0 00-.157-.098.606.606 0 00-.253-.039 1.921 1.921 0 00-.098-.293c-.026-.09-.11-.123-.254-.097a.599.599 0 00.02-.254.698.698 0 00-.06-.195 3.82 3.82 0 00-.038-.176.505.505 0 01.02-.235c-.066 0-.118-.045-.157-.136a2.682 2.682 0 00-.137-.274c.04-.234.078-.455.118-.664.039-.208.084-.403.136-.586.065-.182.117-.364.157-.547a.958.958 0 00-.06-.566c.053.04.092.033.118-.02a1.02 1.02 0 00.059-.234c.013-.104.02-.202.02-.293 0-.104-.007-.189-.02-.254.13-.338.234-.683.312-1.035.091-.364.17-.723.235-1.074.078-.352.156-.697.234-1.035a4.95 4.95 0 01.313-.938.866.866 0 01.468.059c.182.052.293.124.332.215.339-.26.638-.573.899-.938a23.6 23.6 0 01.8-1.094c.274-.351.573-.664.899-.937.338-.274.762-.436 1.27-.488.26.195.546.397.859.605.325.195.592.456.8.781a.96.96 0 01.255.176c.078.052.169.11.273.176v.234c.156.144.28.313.371.508.104.182.195.384.273.606.079.208.157.423.235.644.078.208.17.41.273.606a.479.479 0 00-.039.175c0 .04.007.085.02.137a.764.764 0 01.058.156.581.581 0 010 .215c-.039.573-.228 1.035-.566 1.387a4.105 4.105 0 01-1.191.879c-.47.221-.97.41-1.504.566-.534.156-1.016.326-1.446.508 0 .052.02.078.059.078.052 0 .072.033.058.098.313.195.56.351.743.469a5.6 5.6 0 00.508.293c.169.078.345.15.527.214.195.052.462.118.8.196.34.078.6.143.782.195.195.039.371.078.527.117l.469.078c.17.013.404.033.703.059.117.117.215.26.293.43.091.156.15.319.176.488.026.156.032.312.02.469a.61.61 0 01-.137.351c.013.04.039.059.078.059a.315.315 0 01.156 0 .696.696 0 00-.195.195l-.157.234a.853.853 0 01-.175.196.442.442 0 01-.274.117c-.403.156-.911.163-1.523.02-.612-.13-1.387-.378-2.324-.743a32.837 32.837 0 01-1.153-.468c-.286-.144-.54-.28-.761-.41a6.976 6.976 0 01-.586-.45c-.17-.156-.378-.345-.625-.566zm2.794-6.7a3.397 3.397 0 01-.489.567c-.169.17-.338.345-.508.527-.156.17-.299.365-.43.586-.13.209-.22.456-.273.742a5.635 5.635 0 001.426-.37c.495-.209.964-.404 1.406-.587-.052-.403-.195-.729-.43-.976-.22-.248-.455-.41-.702-.488zm14.511 3.458a3.81 3.81 0 01-.039.175l-.039.118a.506.506 0 00-.02.156v.215a5.8 5.8 0 01-1.484 1.738 11.37 11.37 0 01-1.953 1.25c-.703.351-1.439.677-2.207.976-.768.287-1.517.6-2.246.938-.313-.078-.553-.208-.723-.39a2.149 2.149 0 01-.37-.626 4.817 4.817 0 01-.176-.8 256.4 256.4 0 01-.079-.918c.04-.144.091-.26.157-.352.078-.104.117-.247.117-.43.104-.338.208-.67.312-.996a4.35 4.35 0 00.196-.996.352.352 0 01.214-.215 9.213 9.213 0 000-1.894 9.59 9.59 0 00-.312-1.817 2.22 2.22 0 01.039-.273c.026-.065.026-.11 0-.137-.013-.104.02-.156.098-.156h.273c0-.195-.039-.39-.117-.586a10.84 10.84 0 01-.195-.664c.09-.195.15-.384.175-.566.026-.196.085-.365.176-.508.703.221 1.374.488 2.012.8.65.313 1.289.54 1.914.684.469.339.95.677 1.445 1.016.495.325.944.69 1.348 1.093.404.391.742.84 1.016 1.348.273.508.43 1.113.468 1.817zM36.734 10.8c.274-.104.54-.215.801-.332a5.01 5.01 0 00.742-.39 3.52 3.52 0 00.625-.528 2.41 2.41 0 00.45-.703 1.375 1.375 0 00-.313-.41c-.13-.13-.26-.248-.39-.352l-.391-.352a1.475 1.475 0 01-.293-.43 1.515 1.515 0 01-.45-.136c-.13-.078-.26-.15-.39-.215a2.77 2.77 0 00-.39-.215 1.24 1.24 0 00-.47-.117 4.423 4.423 0 00-.78-.312 1.32 1.32 0 01-.508-.254.351.351 0 00-.215.058c.13.495.228.964.293 1.407.065.43.097.865.097 1.308a9.23 9.23 0 01-.058 1.328c-.052.456-.124.95-.215 1.485.13-.013.247-.04.352-.079a8.05 8.05 0 00.331-.156c.118-.052.235-.097.352-.136.13-.053.28-.085.45-.098a.575.575 0 01.156-.195c.078-.053.15-.111.214-.176zm16.27-6.914c.026.286.072.534.137.742.065.208.136.41.215.605.065.183.123.365.175.547.065.17.11.378.137.625a8.198 8.198 0 00-.234.938c-.04.286-.085.586-.137.898-.208.456-.41.86-.606 1.211-.195.352-.351.658-.468.918a1.102 1.102 0 00-.176.234c-.04.079-.085.163-.137.254a1.717 1.717 0 00-.097.176.655.655 0 01-.098.156l-.39-.136-.079.488-.273.078-.196.234a6.22 6.22 0 01-.78 1.094 5.526 5.526 0 01-.938.781c-.339.222-.73.43-1.172.625-.43.196-.918.41-1.465.645a5.096 5.096 0 00-.586-.04 60.24 60.24 0 01-.45-.038c-.247 0-.553-.02-.917-.059a.372.372 0 00-.176-.215.487.487 0 00-.215-.058 1.141 1.141 0 01-.508-.45c-.104-.208-.208-.43-.312-.663a5.443 5.443 0 00-.196-.391 5.816 5.816 0 00-.214-.39l.332-.098-.43-.47a.348.348 0 00-.098-.097.776.776 0 01-.097-.117l-.02-.312a56.988 56.988 0 01-.058-2.461c.013-.756.117-1.426.312-2.012v-.215c.04-.286.078-.52.117-.703.04-.195.072-.378.098-.547.039-.286.098-.553.176-.8a.729.729 0 00.41-.216c.091-.117.17-.22.234-.312.183-.013.306.013.371.078s.13.17.196.313c.065.117.143.247.234.39a.995.995 0 00.45.332c.025.104.058.215.097.332.052.104.104.222.156.352.104.221.195.456.274.703.09.234.143.462.156.684a3.69 3.69 0 00-.313.859c-.065.325-.11.657-.136.996-.013.326-.007.645.02.957.038.3.097.553.175.762l.117.254.332-.04c.39-.104.742-.214 1.055-.331a5.547 5.547 0 001.68-1.035c.247-.235.507-.502.78-.801a4.7 4.7 0 00.704-1.016c.208-.39.378-.794.508-1.21.143-.418.247-.828.312-1.231.078-.417.13-.808.156-1.172a.457.457 0 00.332-.469l-.039-.215c-.052-.078-.052-.17 0-.273.078-.248.26-.437.547-.567.209.13.39.274.547.43.17.156.326.312.469.469zm3.32 9.082a9.81 9.81 0 01-.39 1.191 3.48 3.48 0 01-.489.82c-.169-.026-.286-.006-.351.06a1.406 1.406 0 01-.215.175c-.117.026-.202.026-.254 0a.52.52 0 01-.137-.098 4.05 4.05 0 00-.156-.098.606.606 0 00-.254-.039 1.932 1.932 0 00-.098-.293c-.026-.09-.11-.123-.253-.097a.6.6 0 00.02-.254.695.695 0 00-.06-.195 3.693 3.693 0 00-.039-.176.503.503 0 01.02-.235c-.065 0-.117-.045-.156-.136a2.661 2.661 0 00-.137-.274c.04-.234.078-.455.117-.664.04-.208.085-.403.137-.586.065-.182.117-.364.156-.547a.96.96 0 00-.058-.566c.052.04.09.033.117-.02.026-.065.045-.143.058-.234.013-.104.02-.202.02-.293 0-.104-.007-.189-.02-.254a7.26 7.26 0 00.313-1.035c.091-.364.17-.723.234-1.074.078-.352.157-.697.235-1.035a4.95 4.95 0 01.312-.938.866.866 0 01.469.059c.182.052.293.124.332.215.338-.26.638-.573.898-.938.26-.377.528-.742.801-1.094.273-.351.573-.664.898-.937.34-.274.762-.436 1.27-.488.26.195.547.397.86.605.325.195.592.456.8.781a.97.97 0 01.254.176c.078.052.17.11.274.176v.234a1.6 1.6 0 01.37.508c.105.182.196.384.274.606.078.208.156.423.234.644.079.208.17.41.274.606a.48.48 0 00-.04.175c0 .04.007.085.02.137a.77.77 0 01.059.156.586.586 0 010 .215c-.04.573-.228 1.035-.566 1.387a4.108 4.108 0 01-1.192.879c-.469.221-.97.41-1.504.566-.534.156-1.015.326-1.445.508 0 .052.02.078.059.078.052 0 .071.033.058.098.313.195.56.351.742.469.183.117.352.214.508.293.17.078.345.15.527.214.196.052.463.118.801.196.339.078.6.143.782.195.195.039.37.078.527.117l.469.078c.169.013.403.033.703.059.117.117.215.26.293.43.09.156.15.319.175.488.027.156.033.312.02.469a.61.61 0 01-.137.351c.013.04.04.059.078.059a.316.316 0 01.157 0 .695.695 0 00-.196.195l-.156.234a.853.853 0 01-.176.196.442.442 0 01-.273.117c-.404.156-.912.163-1.524.02-.612-.13-1.386-.378-2.324-.743a32.901 32.901 0 01-1.152-.468c-.287-.144-.54-.28-.762-.41a6.962 6.962 0 01-.586-.45c-.17-.156-.377-.345-.625-.566zm2.793-6.7a3.392 3.392 0 01-.488.567c-.17.17-.339.345-.508.527-.156.17-.3.365-.43.586-.13.209-.22.456-.273.742a5.636 5.636 0 001.426-.37c.495-.209.963-.404 1.406-.587-.052-.403-.195-.729-.43-.976-.221-.248-.455-.41-.703-.488zm15.215 7.09c-.078.222-.195.45-.351.684a2.89 2.89 0 01-1.192 1.035 2.033 2.033 0 01-.781.195c-.17-.039-.287-.084-.352-.136a2.067 2.067 0 00-.175-.117.5.5 0 00-.118-.06.31.31 0 00-.078-.058l-.234-.097.078-.254c.026-.104.02-.183-.02-.235a1.255 1.255 0 00-.234-.254l-.117-.117a.777.777 0 01-.098-.117l-.332-.371.528-.137c.325-.09.54-.208.644-.351.117-.143.163-.384.137-.723a1.658 1.658 0 00-.664-.02c-.17.04-.345.085-.528.137a11.74 11.74 0 01-.722.176 4.78 4.78 0 01-.782.059h-.293a15.982 15.982 0 00-.292-.04l-.196-.038c-.026-.144-.052-.222-.078-.235l-.078-.078a2.39 2.39 0 01-.215-.254.59.59 0 01-.039-.43.934.934 0 01-.117-.351 2.19 2.19 0 00-.176.488l-.078.195-.195.04c-.026.013-.046.045-.059.097a.321.321 0 00-.02.098l-.097.332-.078.078a.305.305 0 00-.078.059 3.546 3.546 0 01-.098.351c-.04.117-.078.228-.117.332a8.06 8.06 0 00-.176.508 1.433 1.433 0 00-.04.469l-.077.215a1.012 1.012 0 01-.215.195l-.235.117a.454.454 0 01-.117.078.757.757 0 00-.097.04l-.059.214-.234.04c-.144.025-.248.045-.313.058a.823.823 0 01-.195.02l-.195-.02a51.155 51.155 0 01-.332-.274 1.538 1.538 0 00-.274-.214c-.117-.157-.182-.274-.195-.352a6.828 6.828 0 00-.04-.215.64.64 0 01-.038-.195.248.248 0 00-.059-.117l-.254-.235.215-.176.02-.332c.26-.664.533-1.302.82-1.914l.918-1.875c.104-.208.202-.416.293-.625l.312-.625a.433.433 0 01.02-.312c.143-.222.26-.417.351-.586l.274-.547c.104-.221.208-.436.312-.644a5.35 5.35 0 01.43-.645l.313-.137c.039-.013.084-.026.136-.039a.388.388 0 01.176-.039l.293.04c.365-.17.684-.404.957-.704.274-.312.553-.684.84-1.113l.195-.274.254.157c.065.039.156.078.273.117.118.026.241.058.372.097.234.053.455.111.664.176.208.065.377.163.507.293.079.209.124.365.137.469.013.104.033.208.059.312.039.222.071.443.098.665.038.22.065.468.078.742.065.221.117.442.156.664.052.208.097.423.137.644.065.313.13.619.195.918.065.287.15.56.254.82.104 0 .17.007.195.02.065-.026.13-.045.195-.059.078-.013.163-.026.254-.039l.215-.02.078.196c.013.065.078.13.196.196.169.013.293.052.37.117.079.052.15.11.215.175a.612.612 0 00.157.118l.293.117-.156.293c-.13.234-.32.462-.567.683a3.412 3.412 0 01-.8.528c.012.078.019.156.019.234a1.8 1.8 0 00.058.215c.04.221.072.45.098.684a3.35 3.35 0 010 .722l-.039.078zM68.688 9.98c.39-.026.742-.052 1.054-.078a13.97 13.97 0 001.074-.175c-.09-.391-.188-.795-.293-1.211-.104-.43-.214-.853-.332-1.27l-.117.195c-.26.274-.514.58-.761.918-.235.339-.437.658-.606.957l-.234.352a4.55 4.55 0 00-.215.352c.078-.013.15-.02.215-.02a1.1 1.1 0 00.215-.02z" fill="#252525"/></svg>