<svg width="100" height="32" fill="none" xmlns="http://www.w3.org/2000/svg"><path d="M4.92 23.94L.82 9.08l3.74-.32 2 1 .96 3.86 1.2-5.04 3.62-.32 2 1-4.02 15.38-3.4.3-2-1zM8.88 8.78l-1.74 7.4c-.093.44-.173.88-.24 1.32-.067.427-.113.78-.14 1.06l-.04.42h-.06l-.06-.4c-.027-.28-.073-.627-.14-1.04-.067-.413-.153-.84-.26-1.28L4.4 8.98l-3.32.28 3.98 14.48 3.08-.28L12.06 8.5l-3.18.28zm7.4 17.38v-15.2l8.62-.76 2 1v3.28l-5.2.46v1.2l2.14-.2 2 1v3.24l-4.14.38v1.88l3.54-.32 2 1v3.26l-8.96.78-2-1zm3.22-3.32v-3.46l4.14-.38v-2.84l-4.14.38v-2.78l5.2-.46v-2.88l-8.22.72v14.82l8.56-.76v-2.86l-5.54.5zm16.64-.04l-1.42-2.56v3.64l-3.44.3-2-1V7.98l5.02-.44c.107-.013.207-.02.3-.02h.3c.773 0 1.52.12 2.24.36a6.1 6.1 0 011.94 1.06 5.117 5.117 0 011.36 1.7c.333.653.5 1.4.5 2.24 0 2.12-.773 3.647-2.32 4.58L42 23.48l-3.86.32-2-1zm.2-6.42c.827-.453 1.433-1.053 1.82-1.8.387-.747.58-1.647.58-2.7 0-1.24-.347-2.24-1.04-3-.68-.773-1.64-1.16-2.88-1.16h-.24c-.08 0-.167.007-.26.02l-4.84.42v14.82l3.04-.26v-5.28l.86-.08 2.86 5.24 3.42-.3-3.32-5.92zm-3.82-5.6l1.32-.12h.22c.44 0 .807.133 1.1.4.307.253.46.7.46 1.34 0 .667-.16 1.187-.48 1.56-.32.36-.753.567-1.3.62l-1.32.12v-3.92zm2.2 3.3c.467-.333.7-.893.7-1.68 0-.093-.007-.18-.02-.26 0-.08-.007-.16-.02-.24l-.66.06v2.12zm8.56 12.16v-15.2l4.16-.36c.173-.013.34-.02.5-.02.16-.013.307-.02.44-.02.733 0 1.387.087 1.96.26.587.173 1.227.427 1.92.76.933.427 1.693.953 2.28 1.58.587.613 1.02 1.373 1.3 2.28.28.893.42 1.987.42 3.28 0 1.693-.287 3.12-.86 4.28-.56 1.16-1.333 2.053-2.32 2.68-.987.613-2.127.98-3.42 1.1l-4.38.38-2-1zm4.36-.56c1.253-.107 2.36-.467 3.32-1.08.973-.613 1.733-1.487 2.28-2.62.547-1.133.82-2.527.82-4.18 0-2.267-.487-3.993-1.46-5.18-.96-1.187-2.387-1.78-4.28-1.78a4.66 4.66 0 00-.42.02 4.87 4.87 0 00-.44.02l-3.98.34v14.8l4.16-.34zM46.5 13.9l.58-.04c.147-.013.28-.02.4-.02a4.12 4.12 0 01.4-.02c.693 0 1.26.127 1.7.38.453.253.787.687 1 1.3.227.613.34 1.473.34 2.58 0 1.573-.327 2.727-.98 3.46-.653.72-1.54 1.127-2.66 1.22l-.78.06V13.9zm2.2 8.3a2.98 2.98 0 001.52-1.42c.333-.667.5-1.567.5-2.7 0-1.413-.2-2.427-.6-3.04a.66.66 0 00-.16-.02h-.16c-.12 0-.24.007-.36.02-.107 0-.22.007-.34.02l-.4.02v7.12zM68.2 8.4l2 1v10.14c0 1.72-.447 3.067-1.34 4.04-.88.973-2.08 1.533-3.6 1.68-.093.013-.193.02-.3.02h-.3c-.64 0-1.24-.093-1.8-.28a13.763 13.763 0 01-1.7-.72c-.64-.333-1.173-.7-1.6-1.1-.427-.4-.747-.9-.96-1.5-.213-.613-.32-1.38-.32-2.3V9.08l3.5-.32 2 1v9.7c0 .213.007.413.02.6.027.173.053.333.08.48.307-.16.54-.433.7-.82.16-.387.24-.907.24-1.56V8.7l3.38-.3zm-3.18.48v9.28c0 .933-.153 1.613-.46 2.04-.307.413-.733.647-1.28.7h-.2c-.493 0-.867-.193-1.12-.58-.253-.387-.38-1.007-.38-1.86V8.98l-3.1.28v10.12c0 1.533.36 2.7 1.08 3.5.72.8 1.747 1.2 3.08 1.2h.3c.107 0 .207-.007.3-.02 1.467-.12 2.627-.653 3.48-1.6.853-.96 1.28-2.267 1.28-3.92V8.62l-2.98.26zM80.14 25.8l-1.42-2.56v3.64l-3.44.3-2-1v-15.2l5.02-.44c.107-.013.207-.02.3-.02h.3c.773 0 1.52.12 2.24.36a6.1 6.1 0 011.94 1.06 5.117 5.117 0 011.36 1.7c.333.653.5 1.4.5 2.24 0 2.12-.773 3.647-2.32 4.58L86 26.48l-3.86.32-2-1zm.2-6.42c.827-.453 1.433-1.053 1.82-1.8.387-.747.58-1.647.58-2.7 0-1.24-.347-2.24-1.04-3-.68-.773-1.64-1.16-2.88-1.16h-.24c-.08 0-.167.007-.26.02l-4.84.42v14.82l3.04-.26v-5.28l.86-.08 2.86 5.24 3.42-.3-3.32-5.92zm-3.82-5.6l1.32-.12h.22c.44 0 .807.133 1.1.4.307.253.46.7.46 1.34 0 .667-.16 1.187-.48 1.56-.32.36-.753.567-1.3.62l-1.32.12v-3.92zm2.2 3.3c.467-.333.7-.893.7-1.68 0-.093-.007-.18-.02-.26 0-.08-.007-.16-.02-.24l-.66.06v2.12z" fill="#000"/><path d="M94.28 23.76l-.74-2.38-1.58.14-.98 3.5-3.4.3-2-1L89.96 8.7l3.3-.28 2 1 4.46 15.06-3.44.28-2-1zM90.12 8.9l-4.24 15.18 2.92-.24 1-3.5 3.56-.32 1.06 3.54 3.02-.26L93.1 8.64l-2.98.26zm.38 8.52c.253-.827.46-1.613.62-2.36.173-.747.32-1.493.44-2.24h.08c.107.733.24 1.453.4 2.16.173.693.38 1.44.62 2.24l-2.16.2z" fill="#000"/></svg>