<svg width="23" height="19" fill="none" xmlns="http://www.w3.org/2000/svg"><path d="M10.554 4.605l-3.383-3.32c-.39-.382-1.105-.38-1.558.006L2.831 3.66c-.828.704-1.065 1.75-.586 2.59 2.862 5.035 7.64 9.102 13.561 11.542.986.407 2.216.205 3.044-.5l2.808-2.39c.455-.387.456-.998.002-1.33l-3.92-2.86c-.41-.299-1.047-.26-1.458.09l-1.364 1.162a.493.493 0 01-.261.116.533.533 0 01-.292-.042c-2.23-1.091-4.079-2.665-5.36-4.561a.343.343 0 01-.05-.248.378.378 0 01.138-.223l1.36-1.157c.412-.352.457-.896.101-1.245v0z" stroke="#62D2D1" stroke-width="2" stroke-linecap="round" stroke-linejoin="round"/></svg>