<svg width="108" height="33" viewBox="0 0 108 33" fill="none" xmlns="http://www.w3.org/2000/svg">
<path d="M25.4895 0.53125C14.3667 0.53125 4.71358 6.72323 0.18872 15.8016C-0.0629068 16.3107 -0.0629068 16.9127 0.18872 17.4218C4.71086 26.5073 14.3626 32.7107 25.4895 32.7107C36.6163 32.7107 46.2681 26.5073 50.7902 17.4218C51.0419 16.9127 51.0419 16.3107 50.7902 15.8016C46.2654 6.72323 36.6123 0.53125 25.4895 0.53125ZM18.1908 5.16825C14.5647 7.62223 12.1599 11.8405 12.1599 16.621C12.1599 21.4015 14.5647 25.6197 18.1908 28.0738C11.9083 26.2094 6.73474 22.0191 3.75652 16.621C6.73469 11.2211 11.9082 7.03191 18.1908 5.16825ZM32.7881 5.16825C39.0707 7.03191 44.2443 11.2211 47.2224 16.621C44.2442 22.0191 39.0707 26.2094 32.7881 28.0738C36.4142 25.6197 38.819 21.4015 38.819 16.621C38.819 11.8405 36.4142 7.62223 32.7881 5.16825ZM25.4895 6.4904C30.9513 6.4904 35.3417 11.0048 35.3417 16.621C35.3417 22.2371 30.9513 26.7515 25.4895 26.7515C20.0276 26.7515 15.6372 22.2371 15.6372 16.621C15.6372 11.0048 20.0276 6.4904 25.4895 6.4904Z" fill="#F1F1F1"/>
<path d="M82.4895 0.53125C71.3667 0.53125 61.7136 6.72323 57.1887 15.8016C56.9371 16.3107 56.9371 16.9127 57.1887 17.4218C61.7109 26.5073 71.3626 32.7107 82.4895 32.7107C93.6163 32.7107 103.268 26.5073 107.79 17.4218C108.042 16.9127 108.042 16.3107 107.79 15.8016C103.265 6.72323 93.6123 0.53125 82.4895 0.53125ZM75.1908 5.16825C71.5647 7.62223 69.1599 11.8405 69.1599 16.621C69.1599 21.4015 71.5647 25.6197 75.1908 28.0738C68.9083 26.2094 63.7347 22.0191 60.7565 16.621C63.7347 11.2211 68.9082 7.03191 75.1908 5.16825ZM89.7882 5.16825C96.0707 7.03191 101.244 11.2211 104.222 16.621C101.244 22.0191 96.0707 26.2094 89.7882 28.0738C93.4143 25.6197 95.819 21.4015 95.819 16.621C95.819 11.8405 93.4143 7.62223 89.7882 5.16825ZM82.4895 6.4904C87.9513 6.4904 92.3417 11.0048 92.3417 16.621C92.3417 22.2371 87.9513 26.7515 82.4895 26.7515C77.0276 26.7515 72.6372 22.2371 72.6372 16.621C72.6372 11.0048 77.0276 6.4904 82.4895 6.4904Z" fill="#F1F1F1"/>
</svg>
