<svg width="26" height="28" viewBox="0 0 26 28" fill="none" xmlns="http://www.w3.org/2000/svg">
<path d="M4.74744 0C2.11757 0 0 2.22213 0 4.98186V22.302C0 25.0617 2.11757 27.2838 4.74744 27.2838H13.6931V16.6176H11.0053V12.7774H13.6931V9.49648C13.6931 6.91885 15.2811 4.55214 18.9394 4.55214C20.4206 4.55214 21.5158 4.70135 21.5158 4.70135L21.4297 8.28748C21.4297 8.28748 20.3127 8.27641 19.0938 8.27641C17.7745 8.27641 17.563 8.91425 17.563 9.97313V12.7774H21.5345L21.3614 16.6176H17.563V27.2839H21.2526C23.8824 27.2839 26 25.0617 26 22.302V4.98189C26 2.22216 23.8824 2.72838e-05 21.2526 2.72838e-05H4.74742L4.74744 0Z" fill="#252525"/>
</svg>
