<svg width="26" height="28" viewBox="0 0 26 28" fill="none" xmlns="http://www.w3.org/2000/svg">
<path d="M12.9965 9.09268C10.6094 9.09268 8.66141 11.1369 8.66141 13.6419C8.66141 16.1469 10.6094 18.1912 12.9965 18.1912C15.3836 18.1912 17.3316 16.1469 17.3316 13.6419C17.3316 11.1369 15.3836 9.09268 12.9965 9.09268ZM25.9985 13.6419C25.9985 11.7581 26.0148 9.89128 25.914 8.01083C25.8132 5.82664 25.3384 3.88818 23.8164 2.291C22.2911 0.690398 20.4472 0.195544 18.3658 0.0897476C16.5706 -0.0160489 14.7917 0.00101511 12.9998 0.00101511C11.2046 0.00101511 9.42566 -0.0160489 7.63373 0.0897476C5.55236 0.195544 3.70515 0.693811 2.18315 2.291C0.657899 3.89159 0.186339 5.82664 0.0855228 8.01083C-0.0152934 9.89469 0.000967329 11.7615 0.000967329 13.6419C0.000967329 15.5224 -0.0152934 17.3926 0.0855228 19.273C0.186339 21.4572 0.661151 23.3957 2.18315 24.9929C3.7084 26.5935 5.55236 27.0883 7.63373 27.1941C9.42891 27.2999 11.2078 27.2828 12.9998 27.2828C14.7949 27.2828 16.5739 27.2999 18.3658 27.1941C20.4472 27.0883 22.2944 26.59 23.8164 24.9929C25.3416 23.3923 25.8132 21.4572 25.914 19.273C26.0181 17.3926 25.9985 15.5258 25.9985 13.6419ZM12.9965 20.6416C9.30533 20.6416 6.32637 17.5154 6.32637 13.6419C6.32637 9.76842 9.30533 6.6423 12.9965 6.6423C16.6877 6.6423 19.6666 9.76842 19.6666 13.6419C19.6666 17.5154 16.6877 20.6416 12.9965 20.6416ZM19.9398 7.99035C19.078 7.99035 18.382 7.26002 18.382 6.35563C18.382 5.45124 19.078 4.7209 19.9398 4.7209C20.8016 4.7209 21.4976 5.45124 21.4976 6.35563C21.4978 6.57038 21.4577 6.78307 21.3795 6.98153C21.3013 7.17998 21.1866 7.3603 21.0419 7.51215C20.8972 7.66401 20.7254 7.78441 20.5363 7.86647C20.3471 7.94852 20.1445 7.99062 19.9398 7.99035Z" fill="#252525"/>
</svg>
