<svg width="100" height="32" viewBox="0 0 100 32" fill="none" xmlns="http://www.w3.org/2000/svg">
<path d="M4.92 23.94L0.82 9.08L4.56 8.76L6.56 9.76L7.52 13.62L8.72 8.58L12.34 8.26L14.34 9.26L10.32 24.64L6.92 24.94L4.92 23.94ZM8.88 8.78L7.14 16.18C7.04667 16.62 6.96667 17.06 6.9 17.5C6.83333 17.9267 6.78667 18.28 6.76 18.56C6.73333 18.84 6.72 18.98 6.72 18.98H6.66C6.66 18.98 6.64 18.8467 6.6 18.58C6.57333 18.3 6.52667 17.9533 6.46 17.54C6.39333 17.1267 6.30667 16.7 6.2 16.26L4.4 8.98L1.08 9.26L5.06 23.74L8.14 23.46L12.06 8.5L8.88 8.78Z" fill="black"/>
<path d="M16.28 26.16V10.96L24.9 10.2L26.9 11.2V14.48L21.7 14.94V16.14L23.84 15.94L25.84 16.94V20.18L21.7 20.56V22.44L25.24 22.12L27.24 23.12V26.38L18.28 27.16L16.28 26.16ZM19.5 22.84V19.38L23.64 19V16.16L19.5 16.54V13.76L24.7 13.3V10.42L16.48 11.14V25.96L25.04 25.2V22.34L19.5 22.84Z" fill="black"/>
<path d="M36.14 22.8L34.72 20.24V23.88L31.28 24.18L29.28 23.18V7.98L34.3 7.54C34.4067 7.52667 34.5067 7.52 34.6 7.52C34.7067 7.52 34.8067 7.52 34.9 7.52C35.6733 7.52 36.42 7.64 37.14 7.88C37.86 8.12 38.5067 8.47333 39.08 8.94C39.6533 9.40667 40.1067 9.97333 40.44 10.64C40.7733 11.2933 40.94 12.04 40.94 12.88C40.94 15 40.1667 16.5267 38.62 17.46L42 23.48L38.14 23.8L36.14 22.8ZM36.34 16.38C37.1667 15.9267 37.7733 15.3267 38.16 14.58C38.5467 13.8333 38.74 12.9333 38.74 11.88C38.74 10.64 38.3933 9.64 37.7 8.88C37.02 8.10667 36.06 7.72 34.82 7.72C34.74 7.72 34.66 7.72 34.58 7.72C34.5 7.72 34.4133 7.72667 34.32 7.74L29.48 8.16V22.98L32.52 22.72V17.44L33.38 17.36L36.24 22.6L39.66 22.3L36.34 16.38ZM32.52 10.78L33.84 10.66H34.06C34.5 10.66 34.8667 10.7933 35.16 11.06C35.4667 11.3133 35.62 11.76 35.62 12.4C35.62 13.0667 35.46 13.5867 35.14 13.96C34.82 14.32 34.3867 14.5267 33.84 14.58L32.52 14.7V10.78ZM34.72 14.08C35.1867 13.7467 35.42 13.1867 35.42 12.4C35.42 12.3067 35.4133 12.22 35.4 12.14C35.4 12.06 35.3933 11.98 35.38 11.9L34.72 11.96V14.08Z" fill="black"/>
<path d="M43.28 26.24V11.04L47.44 10.68C47.6133 10.6667 47.78 10.66 47.94 10.66C48.1 10.6467 48.2467 10.64 48.38 10.64C49.1133 10.64 49.7667 10.7267 50.34 10.9C50.9267 11.0733 51.5667 11.3267 52.26 11.66C53.1933 12.0867 53.9533 12.6133 54.54 13.24C55.1267 13.8533 55.56 14.6133 55.84 15.52C56.12 16.4133 56.26 17.5067 56.26 18.8C56.26 20.4933 55.9733 21.92 55.4 23.08C54.84 24.24 54.0667 25.1333 53.08 25.76C52.0933 26.3733 50.9533 26.74 49.66 26.86L45.28 27.24L43.28 26.24ZM47.64 25.68C48.8933 25.5733 50 25.2133 50.96 24.6C51.9333 23.9867 52.6933 23.1133 53.24 21.98C53.7867 20.8467 54.06 19.4533 54.06 17.8C54.06 15.5333 53.5733 13.8067 52.6 12.62C51.64 11.4333 50.2133 10.84 48.32 10.84C48.1867 10.84 48.0467 10.8467 47.9 10.86C47.7533 10.86 47.6067 10.8667 47.46 10.88L43.48 11.22V26.02L47.64 25.68ZM46.5 13.9L47.08 13.86C47.2267 13.8467 47.36 13.84 47.48 13.84C47.6133 13.8267 47.7467 13.82 47.88 13.82C48.5733 13.82 49.14 13.9467 49.58 14.2C50.0333 14.4533 50.3667 14.8867 50.58 15.5C50.8067 16.1133 50.92 16.9733 50.92 18.08C50.92 19.6533 50.5933 20.8067 49.94 21.54C49.2867 22.26 48.4 22.6667 47.28 22.76L46.5 22.82V13.9ZM48.7 22.2C49.38 21.9067 49.8867 21.4333 50.22 20.78C50.5533 20.1133 50.72 19.2133 50.72 18.08C50.72 16.6667 50.52 15.6533 50.12 15.04C50.0667 15.0267 50.0133 15.02 49.96 15.02C49.9067 15.02 49.8533 15.02 49.8 15.02C49.68 15.02 49.56 15.0267 49.44 15.04C49.3333 15.04 49.22 15.0467 49.1 15.06L48.7 15.08V22.2Z" fill="black"/>
<path d="M68.2 8.4L70.2 9.4V19.54C70.2 21.26 69.7533 22.6067 68.86 23.58C67.98 24.5533 66.78 25.1133 65.26 25.26C65.1667 25.2733 65.0667 25.28 64.96 25.28C64.8667 25.28 64.7667 25.28 64.66 25.28C64.02 25.28 63.42 25.1867 62.86 25C62.3133 24.8133 61.7467 24.5733 61.16 24.28C60.52 23.9467 59.9867 23.58 59.56 23.18C59.1333 22.78 58.8133 22.28 58.6 21.68C58.3867 21.0667 58.28 20.3 58.28 19.38V9.08L61.78 8.76L63.78 9.76V19.46C63.78 19.6733 63.7867 19.8733 63.8 20.06C63.8267 20.2333 63.8533 20.3933 63.88 20.54C64.1867 20.38 64.42 20.1067 64.58 19.72C64.74 19.3333 64.82 18.8133 64.82 18.16V8.7L68.2 8.4ZM65.02 8.88V18.16C65.02 19.0933 64.8667 19.7733 64.56 20.2C64.2533 20.6133 63.8267 20.8467 63.28 20.9H63.08C62.5867 20.9 62.2133 20.7067 61.96 20.32C61.7067 19.9333 61.58 19.3133 61.58 18.46V8.98L58.48 9.26V19.38C58.48 20.9133 58.84 22.08 59.56 22.88C60.28 23.68 61.3067 24.08 62.64 24.08C62.7467 24.08 62.8467 24.08 62.94 24.08C63.0467 24.08 63.1467 24.0733 63.24 24.06C64.7067 23.94 65.8667 23.4067 66.72 22.46C67.5733 21.5 68 20.1933 68 18.54V8.62L65.02 8.88Z" fill="black"/>
<path d="M80.14 25.8L78.72 23.24V26.88L75.28 27.18L73.28 26.18V10.98L78.3 10.54C78.4067 10.5267 78.5067 10.52 78.6 10.52C78.7067 10.52 78.8067 10.52 78.9 10.52C79.6733 10.52 80.42 10.64 81.14 10.88C81.86 11.12 82.5067 11.4733 83.08 11.94C83.6533 12.4067 84.1067 12.9733 84.44 13.64C84.7733 14.2933 84.94 15.04 84.94 15.88C84.94 18 84.1667 19.5267 82.62 20.46L86 26.48L82.14 26.8L80.14 25.8ZM80.34 19.38C81.1667 18.9267 81.7733 18.3267 82.16 17.58C82.5467 16.8333 82.74 15.9333 82.74 14.88C82.74 13.64 82.3933 12.64 81.7 11.88C81.02 11.1067 80.06 10.72 78.82 10.72C78.74 10.72 78.66 10.72 78.58 10.72C78.5 10.72 78.4133 10.7267 78.32 10.74L73.48 11.16V25.98L76.52 25.72V20.44L77.38 20.36L80.24 25.6L83.66 25.3L80.34 19.38ZM76.52 13.78L77.84 13.66H78.06C78.5 13.66 78.8667 13.7933 79.16 14.06C79.4667 14.3133 79.62 14.76 79.62 15.4C79.62 16.0667 79.46 16.5867 79.14 16.96C78.82 17.32 78.3867 17.5267 77.84 17.58L76.52 17.7V13.78ZM78.72 17.08C79.1867 16.7467 79.42 16.1867 79.42 15.4C79.42 15.3067 79.4133 15.22 79.4 15.14C79.4 15.06 79.3933 14.98 79.38 14.9L78.72 14.96V17.08Z" fill="black"/>
<path d="M94.28 23.76L93.54 21.38L91.96 21.52L90.98 25.02L87.58 25.32L85.58 24.32L89.96 8.7L93.26 8.42L95.26 9.42L99.72 24.48L96.28 24.76L94.28 23.76ZM90.12 8.9L85.88 24.08L88.8 23.84L89.8 20.34L93.36 20.02L94.42 23.56L97.44 23.3L93.1 8.64L90.12 8.9ZM90.5 17.42C90.7533 16.5933 90.96 15.8067 91.12 15.06C91.2933 14.3133 91.44 13.5667 91.56 12.82H91.64C91.7467 13.5533 91.88 14.2733 92.04 14.98C92.2133 15.6733 92.42 16.42 92.66 17.22L90.5 17.42Z" fill="black"/>
</svg>
