<svg width="76" height="16" viewBox="0 0 76 16" fill="none" xmlns="http://www.w3.org/2000/svg">
<path d="M0.542969 7.65625C0.477865 7.29167 0.458333 6.91406 0.484375 6.52344C0.510417 6.13281 0.523438 5.75521 0.523438 5.39062C0.523438 5.03906 0.497396 4.66797 0.445312 4.27734C0.40625 3.8737 0.367188 3.48958 0.328125 3.125C0.302083 2.76042 0.289062 2.42839 0.289062 2.12891C0.302083 1.81641 0.347656 1.57552 0.425781 1.40625C0.529948 1.21094 0.660156 1.0612 0.816406 0.957031C0.972656 0.839844 1.1224 0.709635 1.26562 0.566406C1.4349 0.592448 1.58464 0.644531 1.71484 0.722656C1.85807 0.78776 1.97526 0.878906 2.06641 0.996094C2.17057 1.10026 2.24219 1.21094 2.28125 1.32812C2.33333 1.44531 2.34635 1.5625 2.32031 1.67969C2.64583 1.875 2.90625 2.14193 3.10156 2.48047C3.3099 2.80599 3.46615 3.17057 3.57031 3.57422C3.6875 3.96484 3.76562 4.38151 3.80469 4.82422C3.85677 5.26693 3.89583 5.70312 3.92188 6.13281C3.96094 6.5625 3.99349 6.97266 4.01953 7.36328C4.05859 7.74089 4.1237 8.07292 4.21484 8.35938C4.78776 7.52604 5.26953 6.79036 5.66016 6.15234C6.0638 5.5013 6.46745 4.88281 6.87109 4.29688C7.27474 3.69792 7.72396 3.09245 8.21875 2.48047C8.72656 1.86849 9.37109 1.17839 10.1523 0.410156C10.3216 0.436198 10.4518 0.46875 10.543 0.507812C10.6341 0.546875 10.7253 0.585938 10.8164 0.625C10.9076 0.664062 11.0052 0.696615 11.1094 0.722656C11.2135 0.735677 11.3568 0.729167 11.5391 0.703125C11.6042 0.859375 11.6497 0.976562 11.6758 1.05469C11.7148 1.11979 11.7474 1.1849 11.7734 1.25C11.7995 1.3151 11.832 1.39974 11.8711 1.50391C11.9102 1.60807 11.9688 1.76432 12.0469 1.97266C12.0859 2.02474 12.099 2.09635 12.0859 2.1875C12.0859 2.26562 12.0794 2.33724 12.0664 2.40234C12.0534 2.46745 12.0469 2.51953 12.0469 2.55859C12.0599 2.59766 12.1055 2.59766 12.1836 2.55859C12.1315 2.77995 12.0469 2.98177 11.9297 3.16406C11.8125 3.33333 11.7604 3.54167 11.7734 3.78906C11.4219 4.25781 11.0312 4.73958 10.6016 5.23438C10.1719 5.72917 9.74219 6.25 9.3125 6.79688C8.88281 7.33073 8.46615 7.89062 8.0625 8.47656C7.67188 9.04948 7.33984 9.66146 7.06641 10.3125C6.98828 10.3125 6.92969 10.332 6.89062 10.3711C6.85156 10.4102 6.8125 10.4557 6.77344 10.5078C6.7474 10.5599 6.71484 10.612 6.67578 10.6641C6.64974 10.7161 6.59766 10.7422 6.51953 10.7422C6.49349 11.1589 6.33724 11.556 6.05078 11.9336C5.77734 12.2982 5.4974 12.6107 5.21094 12.8711C5.23698 12.9753 5.25 13.0599 5.25 13.125C5.25 13.1901 5.24349 13.2552 5.23047 13.3203C5.21745 13.3854 5.20443 13.457 5.19141 13.5352C5.19141 13.6003 5.19792 13.6849 5.21094 13.7891C5.09375 14.1016 4.9375 14.362 4.74219 14.5703C4.5599 14.7786 4.35807 14.9349 4.13672 15.0391C3.91536 15.1432 3.6875 15.1823 3.45312 15.1562C3.21875 15.1432 2.9974 15.0651 2.78906 14.9219C2.69792 14.8698 2.61979 14.7982 2.55469 14.707C2.48958 14.6159 2.41797 14.5312 2.33984 14.4531C2.27474 14.362 2.20312 14.2839 2.125 14.2188C2.0599 14.1406 1.97526 14.0885 1.87109 14.0625C1.89714 13.9323 1.89714 13.7956 1.87109 13.6523C1.85807 13.5091 1.83203 13.3789 1.79297 13.2617C1.75391 13.1445 1.70833 13.0469 1.65625 12.9688C1.60417 12.8906 1.55208 12.8516 1.5 12.8516C1.44792 12.526 1.3763 12.1745 1.28516 11.7969C1.20703 11.4062 1.1224 11.0221 1.03125 10.6445C0.953125 10.2669 0.888021 9.89583 0.835938 9.53125C0.783854 9.16667 0.764323 8.82812 0.777344 8.51562C0.790365 8.35938 0.757812 8.22266 0.679688 8.10547C0.614583 7.97526 0.56901 7.82552 0.542969 7.65625ZM21.5781 4.00391C21.5911 4.09505 21.5911 4.16667 21.5781 4.21875C21.5781 4.25781 21.5716 4.29688 21.5586 4.33594C21.5586 4.375 21.5586 4.42057 21.5586 4.47266C21.5586 4.51172 21.5716 4.57682 21.5977 4.66797C21.3242 5.11068 21.0052 5.41667 20.6406 5.58594C20.2891 5.74219 19.9049 5.85938 19.4883 5.9375C19.0716 6.0026 18.6419 6.07422 18.1992 6.15234C17.7695 6.23047 17.3398 6.39974 16.9102 6.66016C16.7409 6.59505 16.5846 6.59505 16.4414 6.66016C16.3112 6.72526 16.1159 6.74479 15.8555 6.71875C15.7773 6.79688 15.6797 6.85547 15.5625 6.89453C15.4453 6.92057 15.3281 6.95312 15.2109 6.99219C15.263 7.10938 15.2826 7.23307 15.2695 7.36328C15.2695 7.48047 15.2891 7.57812 15.3281 7.65625C15.7839 7.69531 16.2852 7.6888 16.832 7.63672C17.3919 7.58464 17.9388 7.55208 18.4727 7.53906C18.4857 7.60417 18.4792 7.64974 18.4531 7.67578C18.4271 7.6888 18.4206 7.72135 18.4336 7.77344C18.5247 7.83854 18.6159 7.92318 18.707 8.02734C18.7982 8.11849 18.8893 8.20964 18.9805 8.30078C19.0716 8.39193 19.1628 8.47005 19.2539 8.53516C19.3581 8.58724 19.4753 8.60677 19.6055 8.59375C19.6576 8.69792 19.6901 8.8151 19.7031 8.94531C19.7292 9.0625 19.7161 9.1862 19.6641 9.31641C19.4557 9.45964 19.2474 9.60938 19.0391 9.76562C18.8307 9.90885 18.6094 10.0391 18.375 10.1562C18.1536 10.2734 17.9128 10.3711 17.6523 10.4492C17.4049 10.5143 17.125 10.5404 16.8125 10.5273C16.7474 10.5273 16.6953 10.5273 16.6562 10.5273C16.6302 10.5273 16.5911 10.5078 16.5391 10.4688C16.4349 10.5339 16.2852 10.5534 16.0898 10.5273C15.9076 10.5013 15.7643 10.5208 15.6602 10.5859C15.5169 10.5208 15.3411 10.4948 15.1328 10.5078C14.9375 10.5078 14.7617 10.4818 14.6055 10.4297C14.3971 10.7031 14.2083 10.9961 14.0391 11.3086C13.8698 11.6211 13.7201 11.9531 13.5898 12.3047C14.0326 12.3698 14.3971 12.3958 14.6836 12.3828C14.9831 12.3698 15.263 12.3503 15.5234 12.3242C15.7839 12.2852 16.0508 12.2526 16.3242 12.2266C16.5977 12.1875 16.9427 12.1745 17.3594 12.1875C17.6198 12.0443 17.9258 11.9531 18.2773 11.9141C18.6419 11.862 18.974 11.7839 19.2734 11.6797C19.3776 11.7188 19.4688 11.7904 19.5469 11.8945C19.625 11.9857 19.6966 12.0768 19.7617 12.168C19.8398 12.2461 19.918 12.3177 19.9961 12.3828C20.0742 12.4479 20.1719 12.474 20.2891 12.4609C20.3411 12.513 20.3737 12.5781 20.3867 12.6562C20.4128 12.7214 20.4323 12.7865 20.4453 12.8516C20.4583 12.9167 20.4779 12.9753 20.5039 13.0273C20.543 13.0664 20.6016 13.0794 20.6797 13.0664C20.4844 13.4961 20.2565 13.8281 19.9961 14.0625C19.7487 14.2839 19.4622 14.4531 19.1367 14.5703C18.8112 14.6875 18.4466 14.7786 18.043 14.8438C17.6523 14.9089 17.2161 14.987 16.7344 15.0781C16.6172 15.1042 16.5195 15.0977 16.4414 15.0586C16.3633 15.0326 16.2721 15.0195 16.168 15.0195C15.8685 15.0846 15.5104 15.1432 15.0938 15.1953C14.6771 15.2474 14.2539 15.2669 13.8242 15.2539C13.3945 15.2409 12.9844 15.1823 12.5938 15.0781C12.2031 14.987 11.8841 14.8177 11.6367 14.5703C11.5326 14.4792 11.4609 14.375 11.4219 14.2578C11.3958 14.1276 11.3112 14.0299 11.168 13.9648C11.1549 13.7956 11.1289 13.6068 11.0898 13.3984C11.0508 13.1901 11.0117 12.9753 10.9727 12.7539C10.9336 12.5195 10.901 12.2917 10.875 12.0703C10.862 11.849 10.875 11.6471 10.9141 11.4648C10.9531 11.2695 11.0312 11.0938 11.1484 10.9375C11.2786 10.7812 11.3242 10.612 11.2852 10.4297C11.3503 10.4167 11.3893 10.3841 11.4023 10.332C11.4154 10.2669 11.4674 10.2409 11.5586 10.2539C11.6367 10.0195 11.7214 9.79818 11.8125 9.58984C11.9036 9.38151 11.9948 9.17969 12.0859 8.98438C12.1901 8.78906 12.2878 8.59375 12.3789 8.39844C12.4831 8.1901 12.5807 7.96224 12.6719 7.71484C12.4896 7.54557 12.3529 7.36328 12.2617 7.16797C12.1836 6.95964 12.125 6.75781 12.0859 6.5625C12.0469 6.35417 12.0143 6.14583 11.9883 5.9375C11.9622 5.71615 11.9167 5.49479 11.8516 5.27344C11.9818 5.07812 12.138 4.92188 12.3203 4.80469C12.5156 4.67448 12.724 4.57031 12.9453 4.49219C13.1667 4.41406 13.4076 4.34896 13.668 4.29688C13.9284 4.24479 14.2018 4.1862 14.4883 4.12109C15.0091 3.95182 15.4714 3.82161 15.875 3.73047C16.2917 3.63932 16.6953 3.56771 17.0859 3.51562C17.4896 3.45052 17.9062 3.39193 18.3359 3.33984C18.7656 3.28776 19.2539 3.20964 19.8008 3.10547C19.918 3.22266 20.0286 3.28125 20.1328 3.28125C20.1849 3.16406 20.2435 3.13151 20.3086 3.18359C20.3867 3.22266 20.4193 3.18359 20.4062 3.06641C20.5365 3.28776 20.6992 3.47656 20.8945 3.63281C21.1029 3.77604 21.3307 3.89974 21.5781 4.00391ZM24.0586 12.9688C23.9154 13.4896 23.7852 13.8867 23.668 14.1602C23.5638 14.4206 23.401 14.694 23.1797 14.9805C23.0104 14.9544 22.8932 14.974 22.8281 15.0391C22.763 15.1042 22.6914 15.1628 22.6133 15.2148C22.4961 15.2409 22.4115 15.2409 22.3594 15.2148C22.3073 15.1888 22.2617 15.1562 22.2227 15.1172C22.1836 15.0911 22.1315 15.0586 22.0664 15.0195C22.0143 14.9935 21.9297 14.9805 21.8125 14.9805C21.7865 14.8763 21.7539 14.7786 21.7148 14.6875C21.6888 14.5964 21.6042 14.5638 21.4609 14.5898C21.487 14.4857 21.4935 14.401 21.4805 14.3359C21.4674 14.2578 21.4479 14.1927 21.4219 14.1406C21.4089 14.0755 21.3958 14.0169 21.3828 13.9648C21.3698 13.8997 21.3763 13.8216 21.4023 13.7305C21.3372 13.7305 21.2852 13.6849 21.2461 13.5938C21.207 13.5026 21.1615 13.4115 21.1094 13.3203C21.1484 13.0859 21.1875 12.8646 21.2266 12.6562C21.2656 12.4479 21.3112 12.2526 21.3633 12.0703C21.4284 11.888 21.4805 11.7057 21.5195 11.5234C21.5586 11.3411 21.5391 11.1523 21.4609 10.957C21.513 10.9961 21.5521 10.9896 21.5781 10.9375C21.6042 10.8724 21.6237 10.7943 21.6367 10.7031C21.6497 10.599 21.6562 10.5013 21.6562 10.4102C21.6562 10.306 21.6497 10.2214 21.6367 10.1562C21.7669 9.81771 21.8711 9.47266 21.9492 9.12109C22.0404 8.75651 22.1185 8.39844 22.1836 8.04688C22.2617 7.69531 22.3398 7.35026 22.418 7.01172C22.4961 6.67318 22.6003 6.36068 22.7305 6.07422C22.8737 6.04818 23.0299 6.06771 23.1992 6.13281C23.3815 6.1849 23.4922 6.25651 23.5312 6.34766C23.8698 6.08724 24.1693 5.77474 24.4297 5.41016C24.6901 5.03255 24.957 4.66797 25.2305 4.31641C25.5039 3.96484 25.8034 3.65234 26.1289 3.37891C26.4674 3.10547 26.8906 2.94271 27.3984 2.89062C27.6589 3.08594 27.9453 3.28776 28.2578 3.49609C28.5833 3.69141 28.8503 3.95182 29.0586 4.27734C29.1628 4.32943 29.2474 4.38802 29.3125 4.45312C29.3906 4.50521 29.4818 4.5638 29.5859 4.62891V4.86328C29.7422 5.00651 29.8659 5.17578 29.957 5.37109C30.0612 5.55339 30.1523 5.75521 30.2305 5.97656C30.3086 6.1849 30.3867 6.39974 30.4648 6.62109C30.543 6.82943 30.6341 7.03125 30.7383 7.22656C30.7122 7.29167 30.6992 7.35026 30.6992 7.40234C30.6992 7.44141 30.7057 7.48698 30.7188 7.53906C30.7448 7.59115 30.7643 7.64323 30.7773 7.69531C30.7904 7.7474 30.7904 7.81901 30.7773 7.91016C30.7383 8.48307 30.5495 8.94531 30.2109 9.29688C29.8854 9.64844 29.4883 9.94141 29.0195 10.1758C28.5508 10.3971 28.0495 10.5859 27.5156 10.7422C26.9818 10.8984 26.5 11.0677 26.0703 11.25C26.0703 11.3021 26.0898 11.3281 26.1289 11.3281C26.181 11.3281 26.2005 11.3607 26.1875 11.4258C26.5 11.6211 26.7474 11.7773 26.9297 11.8945C27.112 12.0117 27.2812 12.1094 27.4375 12.1875C27.6068 12.2656 27.7826 12.3372 27.9648 12.4023C28.1602 12.4544 28.4271 12.5195 28.7656 12.5977C29.1042 12.6758 29.3646 12.7409 29.5469 12.793C29.7422 12.832 29.918 12.8711 30.0742 12.9102C30.2305 12.9362 30.3867 12.9622 30.543 12.9883C30.7122 13.0013 30.9466 13.0208 31.2461 13.0469C31.3633 13.1641 31.4609 13.3073 31.5391 13.4766C31.6302 13.6328 31.6888 13.7956 31.7148 13.9648C31.7409 14.1211 31.7474 14.2773 31.7344 14.4336C31.7214 14.5768 31.6758 14.694 31.5977 14.7852C31.6107 14.8242 31.6367 14.8438 31.6758 14.8438C31.7279 14.8307 31.7799 14.8307 31.832 14.8438C31.7539 14.8958 31.6888 14.9609 31.6367 15.0391C31.5846 15.1172 31.5326 15.1953 31.4805 15.2734C31.4284 15.3516 31.3698 15.4167 31.3047 15.4688C31.2396 15.5339 31.1484 15.5729 31.0312 15.5859C30.6276 15.7422 30.1198 15.7487 29.5078 15.6055C28.8958 15.4753 28.1211 15.2279 27.1836 14.8633C26.7148 14.681 26.3307 14.5247 26.0312 14.3945C25.7448 14.2513 25.4909 14.1146 25.2695 13.9844C25.0612 13.8411 24.8659 13.6914 24.6836 13.5352C24.5143 13.3789 24.306 13.1901 24.0586 12.9688ZM26.8516 6.26953C26.7083 6.47786 26.5456 6.66667 26.3633 6.83594C26.194 7.00521 26.0247 7.18099 25.8555 7.36328C25.6992 7.53255 25.556 7.72786 25.4258 7.94922C25.2956 8.15755 25.2044 8.40495 25.1523 8.69141C25.6081 8.63932 26.0833 8.51562 26.5781 8.32031C27.0729 8.11198 27.5417 7.91667 27.9844 7.73438C27.9323 7.33073 27.7891 7.00521 27.5547 6.75781C27.3333 6.51042 27.099 6.34766 26.8516 6.26953ZM41.3633 9.72656C41.3503 9.79167 41.3372 9.85026 41.3242 9.90234C41.3112 9.94141 41.2982 9.98047 41.2852 10.0195C41.2721 10.0586 41.2656 10.1107 41.2656 10.1758C41.2656 10.2279 41.2656 10.2995 41.2656 10.3906C40.875 11.0807 40.3802 11.6602 39.7812 12.1289C39.1953 12.5977 38.5443 13.0143 37.8281 13.3789C37.125 13.7305 36.3893 14.056 35.6211 14.3555C34.8529 14.6419 34.1042 14.9544 33.375 15.293C33.0625 15.2148 32.8216 15.0846 32.6523 14.9023C32.4961 14.7201 32.3724 14.5117 32.2812 14.2773C32.2031 14.0299 32.1445 13.763 32.1055 13.4766C32.0794 13.1771 32.0534 12.8711 32.0273 12.5586C32.0664 12.4154 32.1185 12.2982 32.1836 12.207C32.2617 12.1029 32.3008 11.9596 32.3008 11.7773C32.4049 11.4388 32.5091 11.1068 32.6133 10.7812C32.7174 10.4557 32.7826 10.1237 32.8086 9.78516C32.8477 9.68099 32.9193 9.60938 33.0234 9.57031C33.0885 8.94531 33.0885 8.3138 33.0234 7.67578C32.9714 7.02474 32.8672 6.41927 32.7109 5.85938C32.724 5.72917 32.737 5.63802 32.75 5.58594C32.776 5.52083 32.776 5.47526 32.75 5.44922C32.737 5.34505 32.7695 5.29297 32.8477 5.29297C32.9388 5.29297 33.0299 5.29297 33.1211 5.29297C33.1211 5.09766 33.082 4.90234 33.0039 4.70703C32.9388 4.51172 32.8737 4.29036 32.8086 4.04297C32.8997 3.84766 32.9583 3.65885 32.9844 3.47656C33.0104 3.28125 33.069 3.11198 33.1602 2.96875C33.8633 3.1901 34.5339 3.45703 35.1719 3.76953C35.8229 4.08203 36.4609 4.3099 37.0859 4.45312C37.5547 4.79167 38.0365 5.13021 38.5312 5.46875C39.026 5.79427 39.4753 6.15885 39.8789 6.5625C40.2826 6.95312 40.6211 7.40234 40.8945 7.91016C41.168 8.41797 41.3242 9.02344 41.3633 9.72656ZM36.7344 10.8008C37.0078 10.6966 37.2747 10.5859 37.5352 10.4688C37.8086 10.3516 38.056 10.2214 38.2773 10.0781C38.5117 9.92188 38.7201 9.74609 38.9023 9.55078C39.0846 9.35547 39.2344 9.12109 39.3516 8.84766C39.2734 8.69141 39.1693 8.55469 39.0391 8.4375C38.9089 8.30729 38.7786 8.1901 38.6484 8.08594C38.5182 7.96875 38.388 7.85156 38.2578 7.73438C38.1406 7.61719 38.043 7.47396 37.9648 7.30469C37.7956 7.27865 37.6458 7.23307 37.5156 7.16797C37.3854 7.08984 37.2552 7.01823 37.125 6.95312C37.0078 6.875 36.8776 6.80339 36.7344 6.73828C36.6042 6.67318 36.4479 6.63411 36.2656 6.62109C35.9792 6.47786 35.7188 6.3737 35.4844 6.30859C35.263 6.24349 35.0938 6.15885 34.9766 6.05469C34.8854 6.05469 34.8138 6.07422 34.7617 6.11328C34.8919 6.60807 34.9896 7.07682 35.0547 7.51953C35.1198 7.94922 35.1523 8.38542 35.1523 8.82812C35.1654 9.25781 35.1458 9.70052 35.0938 10.1562C35.0417 10.612 34.9701 11.1068 34.8789 11.6406C35.0091 11.6276 35.1263 11.6016 35.2305 11.5625C35.3477 11.5104 35.4583 11.4583 35.5625 11.4062C35.6797 11.3542 35.7969 11.3086 35.9141 11.2695C36.0443 11.2174 36.194 11.1849 36.3633 11.1719C36.4023 11.0938 36.4544 11.0286 36.5195 10.9766C36.5977 10.9245 36.6693 10.8659 36.7344 10.8008ZM53.0039 3.88672C53.0299 4.17318 53.0755 4.42057 53.1406 4.62891C53.2057 4.83724 53.2773 5.03906 53.3555 5.23438C53.4206 5.41667 53.4792 5.59896 53.5312 5.78125C53.5964 5.95052 53.6419 6.15885 53.668 6.40625C53.5638 6.74479 53.4857 7.05729 53.4336 7.34375C53.3945 7.63021 53.349 7.92969 53.2969 8.24219C53.0885 8.69792 52.8867 9.10156 52.6914 9.45312C52.4961 9.80469 52.3398 10.1107 52.2227 10.3711C52.1576 10.4362 52.099 10.5143 52.0469 10.6055C52.0078 10.6836 51.9622 10.7682 51.9102 10.8594C51.8841 10.8984 51.8516 10.957 51.8125 11.0352C51.7734 11.1133 51.7409 11.1654 51.7148 11.1914L51.3242 11.0547L51.2461 11.543L50.9727 11.6211L50.7773 11.8555C50.5299 12.2852 50.2695 12.6497 49.9961 12.9492C49.7227 13.2357 49.4102 13.4961 49.0586 13.7305C48.7201 13.9518 48.3294 14.1602 47.8867 14.3555C47.457 14.5508 46.9688 14.7656 46.4219 15C46.2005 14.974 46.0052 14.9609 45.8359 14.9609C45.6797 14.9479 45.5299 14.9349 45.3867 14.9219C45.1393 14.9219 44.8333 14.9023 44.4688 14.8633C44.4297 14.7591 44.3711 14.6875 44.293 14.6484C44.2148 14.6094 44.1432 14.5898 44.0781 14.5898C43.8568 14.4857 43.6875 14.3359 43.5703 14.1406C43.4661 13.9323 43.362 13.7109 43.2578 13.4766C43.1927 13.3333 43.1276 13.2031 43.0625 13.0859C42.9974 12.9557 42.9258 12.8255 42.8477 12.6953L43.1797 12.5977L42.75 12.1289C42.724 12.0898 42.6914 12.0573 42.6523 12.0312C42.6133 11.9922 42.5807 11.9531 42.5547 11.9141L42.5352 11.6016C42.4961 10.7031 42.4766 9.88281 42.4766 9.14062C42.4896 8.38542 42.5938 7.71484 42.7891 7.12891V6.91406C42.8281 6.6276 42.8672 6.39323 42.9062 6.21094C42.9453 6.01562 42.9779 5.83333 43.0039 5.66406C43.043 5.3776 43.1016 5.11068 43.1797 4.86328C43.362 4.82422 43.4987 4.7526 43.5898 4.64844C43.681 4.53125 43.7591 4.42708 43.8242 4.33594C44.0065 4.32292 44.1302 4.34896 44.1953 4.41406C44.2604 4.47917 44.3255 4.58333 44.3906 4.72656C44.4557 4.84375 44.5339 4.97396 44.625 5.11719C44.7292 5.26042 44.8789 5.37109 45.0742 5.44922C45.1003 5.55339 45.1328 5.66406 45.1719 5.78125C45.224 5.88542 45.276 6.0026 45.3281 6.13281C45.4323 6.35417 45.5234 6.58854 45.6016 6.83594C45.6927 7.07031 45.7448 7.29818 45.7578 7.51953C45.6276 7.76693 45.5234 8.05339 45.4453 8.37891C45.3802 8.70443 45.3346 9.03646 45.3086 9.375C45.2956 9.70052 45.3021 10.0195 45.3281 10.332C45.3672 10.6315 45.4258 10.8854 45.5039 11.0938L45.6211 11.3477L45.9531 11.3086C46.3438 11.2044 46.6953 11.0938 47.0078 10.9766C47.3333 10.8464 47.6328 10.6966 47.9062 10.5273C48.1797 10.3581 48.4401 10.1628 48.6875 9.94141C48.9349 9.70703 49.1953 9.4401 49.4688 9.14062C49.7422 8.84115 49.9766 8.5026 50.1719 8.125C50.3802 7.73438 50.5495 7.33073 50.6797 6.91406C50.8229 6.4974 50.9271 6.08724 50.9922 5.68359C51.0703 5.26693 51.1224 4.8763 51.1484 4.51172C51.3698 4.43359 51.4805 4.27734 51.4805 4.04297L51.4414 3.82812C51.3893 3.75 51.3893 3.65885 51.4414 3.55469C51.5195 3.30729 51.7018 3.11849 51.9883 2.98828C52.1966 3.11849 52.3789 3.26172 52.5352 3.41797C52.7044 3.57422 52.8607 3.73047 53.0039 3.88672ZM56.3242 12.9688C56.181 13.4896 56.0508 13.8867 55.9336 14.1602C55.8294 14.4206 55.6667 14.694 55.4453 14.9805C55.276 14.9544 55.1589 14.974 55.0938 15.0391C55.0286 15.1042 54.957 15.1628 54.8789 15.2148C54.7617 15.2409 54.6771 15.2409 54.625 15.2148C54.5729 15.1888 54.5273 15.1562 54.4883 15.1172C54.4492 15.0911 54.3971 15.0586 54.332 15.0195C54.2799 14.9935 54.1953 14.9805 54.0781 14.9805C54.0521 14.8763 54.0195 14.7786 53.9805 14.6875C53.9544 14.5964 53.8698 14.5638 53.7266 14.5898C53.7526 14.4857 53.7591 14.401 53.7461 14.3359C53.7331 14.2578 53.7135 14.1927 53.6875 14.1406C53.6745 14.0755 53.6615 14.0169 53.6484 13.9648C53.6354 13.8997 53.6419 13.8216 53.668 13.7305C53.6029 13.7305 53.5508 13.6849 53.5117 13.5938C53.4727 13.5026 53.4271 13.4115 53.375 13.3203C53.4141 13.0859 53.4531 12.8646 53.4922 12.6562C53.5312 12.4479 53.5768 12.2526 53.6289 12.0703C53.694 11.888 53.7461 11.7057 53.7852 11.5234C53.8242 11.3411 53.8047 11.1523 53.7266 10.957C53.7786 10.9961 53.8177 10.9896 53.8438 10.9375C53.8698 10.8724 53.8893 10.7943 53.9023 10.7031C53.9154 10.599 53.9219 10.5013 53.9219 10.4102C53.9219 10.306 53.9154 10.2214 53.9023 10.1562C54.0326 9.81771 54.1367 9.47266 54.2148 9.12109C54.306 8.75651 54.3841 8.39844 54.4492 8.04688C54.5273 7.69531 54.6055 7.35026 54.6836 7.01172C54.7617 6.67318 54.8659 6.36068 54.9961 6.07422C55.1393 6.04818 55.2956 6.06771 55.4648 6.13281C55.6471 6.1849 55.7578 6.25651 55.7969 6.34766C56.1354 6.08724 56.4349 5.77474 56.6953 5.41016C56.9557 5.03255 57.2227 4.66797 57.4961 4.31641C57.7695 3.96484 58.069 3.65234 58.3945 3.37891C58.7331 3.10547 59.1562 2.94271 59.6641 2.89062C59.9245 3.08594 60.2109 3.28776 60.5234 3.49609C60.849 3.69141 61.1159 3.95182 61.3242 4.27734C61.4284 4.32943 61.513 4.38802 61.5781 4.45312C61.6562 4.50521 61.7474 4.5638 61.8516 4.62891V4.86328C62.0078 5.00651 62.1315 5.17578 62.2227 5.37109C62.3268 5.55339 62.418 5.75521 62.4961 5.97656C62.5742 6.1849 62.6523 6.39974 62.7305 6.62109C62.8086 6.82943 62.8997 7.03125 63.0039 7.22656C62.9779 7.29167 62.9648 7.35026 62.9648 7.40234C62.9648 7.44141 62.9714 7.48698 62.9844 7.53906C63.0104 7.59115 63.0299 7.64323 63.043 7.69531C63.056 7.7474 63.056 7.81901 63.043 7.91016C63.0039 8.48307 62.8151 8.94531 62.4766 9.29688C62.151 9.64844 61.7539 9.94141 61.2852 10.1758C60.8164 10.3971 60.3151 10.5859 59.7812 10.7422C59.2474 10.8984 58.7656 11.0677 58.3359 11.25C58.3359 11.3021 58.3555 11.3281 58.3945 11.3281C58.4466 11.3281 58.4661 11.3607 58.4531 11.4258C58.7656 11.6211 59.013 11.7773 59.1953 11.8945C59.3776 12.0117 59.5469 12.1094 59.7031 12.1875C59.8724 12.2656 60.0482 12.3372 60.2305 12.4023C60.4258 12.4544 60.6927 12.5195 61.0312 12.5977C61.3698 12.6758 61.6302 12.7409 61.8125 12.793C62.0078 12.832 62.1836 12.8711 62.3398 12.9102C62.4961 12.9362 62.6523 12.9622 62.8086 12.9883C62.9779 13.0013 63.2122 13.0208 63.5117 13.0469C63.6289 13.1641 63.7266 13.3073 63.8047 13.4766C63.8958 13.6328 63.9544 13.7956 63.9805 13.9648C64.0065 14.1211 64.013 14.2773 64 14.4336C63.987 14.5768 63.9414 14.694 63.8633 14.7852C63.8763 14.8242 63.9023 14.8438 63.9414 14.8438C63.9935 14.8307 64.0456 14.8307 64.0977 14.8438C64.0195 14.8958 63.9544 14.9609 63.9023 15.0391C63.8503 15.1172 63.7982 15.1953 63.7461 15.2734C63.694 15.3516 63.6354 15.4167 63.5703 15.4688C63.5052 15.5339 63.4141 15.5729 63.2969 15.5859C62.8932 15.7422 62.3854 15.7487 61.7734 15.6055C61.1615 15.4753 60.3867 15.2279 59.4492 14.8633C58.9805 14.681 58.5964 14.5247 58.2969 14.3945C58.0104 14.2513 57.7565 14.1146 57.5352 13.9844C57.3268 13.8411 57.1315 13.6914 56.9492 13.5352C56.7799 13.3789 56.5716 13.1901 56.3242 12.9688ZM59.1172 6.26953C58.974 6.47786 58.8112 6.66667 58.6289 6.83594C58.4596 7.00521 58.2904 7.18099 58.1211 7.36328C57.9648 7.53255 57.8216 7.72786 57.6914 7.94922C57.5612 8.15755 57.4701 8.40495 57.418 8.69141C57.8737 8.63932 58.349 8.51562 58.8438 8.32031C59.3385 8.11198 59.8073 7.91667 60.25 7.73438C60.1979 7.33073 60.0547 7.00521 59.8203 6.75781C59.599 6.51042 59.3646 6.34766 59.1172 6.26953ZM74.332 13.3594C74.2539 13.5807 74.1367 13.8086 73.9805 14.043C73.8372 14.2643 73.6615 14.4661 73.4531 14.6484C73.2578 14.8177 73.0365 14.9609 72.7891 15.0781C72.5417 15.1953 72.2812 15.2604 72.0078 15.2734C71.8385 15.2344 71.7214 15.1888 71.6562 15.1367C71.6042 15.0977 71.5456 15.0586 71.4805 15.0195C71.4414 14.9935 71.4023 14.974 71.3633 14.9609C71.3372 14.9349 71.3112 14.9154 71.2852 14.9023L71.0508 14.8047L71.1289 14.5508C71.1549 14.4466 71.1484 14.3685 71.1094 14.3164C71.0703 14.2513 70.9922 14.1667 70.875 14.0625C70.8359 14.0234 70.7969 13.9844 70.7578 13.9453C70.7188 13.9062 70.6862 13.8672 70.6602 13.8281L70.3281 13.457L70.8555 13.3203C71.181 13.2292 71.3958 13.112 71.5 12.9688C71.6172 12.8255 71.6628 12.5846 71.6367 12.2461C71.3763 12.194 71.1549 12.1875 70.9727 12.2266C70.8034 12.2656 70.6276 12.3112 70.4453 12.3633C70.2109 12.4284 69.9701 12.487 69.7227 12.5391C69.4883 12.5781 69.2279 12.5977 68.9414 12.5977C68.8372 12.5977 68.7396 12.5977 68.6484 12.5977C68.5573 12.5846 68.4596 12.5716 68.3555 12.5586L68.1602 12.5195C68.1341 12.3763 68.1081 12.2982 68.082 12.2852C68.056 12.2591 68.0299 12.2331 68.0039 12.207C67.9388 12.1419 67.8672 12.0573 67.7891 11.9531C67.724 11.8359 67.7109 11.6927 67.75 11.5234C67.6849 11.4062 67.6458 11.2891 67.6328 11.1719C67.5547 11.3281 67.4961 11.4909 67.457 11.6602L67.3789 11.8555L67.1836 11.8945C67.1576 11.9076 67.138 11.9401 67.125 11.9922C67.112 12.0312 67.1055 12.0638 67.1055 12.0898L67.0078 12.4219C66.9818 12.4479 66.9557 12.474 66.9297 12.5C66.9036 12.513 66.8776 12.5326 66.8516 12.5586C66.8255 12.6758 66.793 12.793 66.7539 12.9102C66.7148 13.0273 66.6758 13.138 66.6367 13.2422C66.5716 13.4115 66.513 13.5807 66.4609 13.75C66.4219 13.9062 66.4089 14.0625 66.4219 14.2188L66.3438 14.4336C66.2786 14.5117 66.207 14.5768 66.1289 14.6289C66.0508 14.668 65.9727 14.707 65.8945 14.7461C65.8685 14.7721 65.8294 14.7982 65.7773 14.8242C65.7383 14.8372 65.7057 14.8503 65.6797 14.8633L65.6211 15.0781L65.3867 15.1172C65.2435 15.1432 65.1393 15.1628 65.0742 15.1758C65.0221 15.1888 64.957 15.1953 64.8789 15.1953L64.6836 15.1758C64.5404 15.0586 64.4297 14.9674 64.3516 14.9023C64.2734 14.8242 64.1823 14.7526 64.0781 14.6875C63.9609 14.5312 63.8958 14.4141 63.8828 14.3359C63.8698 14.2578 63.8568 14.1862 63.8438 14.1211C63.8177 14.043 63.8047 13.9779 63.8047 13.9258C63.7917 13.8737 63.7721 13.8346 63.7461 13.8086L63.4922 13.5742L63.707 13.3984L63.7266 13.0664C63.987 12.4023 64.2604 11.7643 64.5469 11.1523C64.8464 10.5404 65.1523 9.91536 65.4648 9.27734C65.569 9.06901 65.6667 8.86068 65.7578 8.65234C65.862 8.44401 65.9661 8.23568 66.0703 8.02734C66.0573 7.98828 66.0508 7.94271 66.0508 7.89062C66.0508 7.83854 66.0638 7.77995 66.0898 7.71484C66.2331 7.49349 66.3503 7.29818 66.4414 7.12891C66.5326 6.94661 66.6237 6.76432 66.7148 6.58203C66.819 6.36068 66.9232 6.14583 67.0273 5.9375C67.1445 5.72917 67.2878 5.51432 67.457 5.29297L67.7695 5.15625C67.8086 5.14323 67.8542 5.13021 67.9062 5.11719C67.9583 5.09115 68.0169 5.07812 68.082 5.07812L68.375 5.11719C68.7396 4.94792 69.0586 4.71354 69.332 4.41406C69.6055 4.10156 69.8854 3.73047 70.1719 3.30078L70.3672 3.02734L70.6211 3.18359C70.6862 3.22266 70.7773 3.26172 70.8945 3.30078C71.0117 3.32682 71.1354 3.35938 71.2656 3.39844C71.5 3.45052 71.7214 3.50911 71.9297 3.57422C72.138 3.63932 72.3073 3.73698 72.4375 3.86719C72.5156 4.07552 72.5612 4.23177 72.5742 4.33594C72.5872 4.4401 72.6068 4.54427 72.6328 4.64844C72.6719 4.86979 72.7044 5.09115 72.7305 5.3125C72.7695 5.53385 72.7956 5.78125 72.8086 6.05469C72.8737 6.27604 72.9258 6.4974 72.9648 6.71875C73.0169 6.92708 73.0625 7.14193 73.1016 7.36328C73.1667 7.67578 73.2318 7.98177 73.2969 8.28125C73.362 8.56771 73.4466 8.84115 73.5508 9.10156C73.6549 9.10156 73.7201 9.10807 73.7461 9.12109C73.8112 9.09505 73.8763 9.07552 73.9414 9.0625C74.0195 9.04948 74.1042 9.03646 74.1953 9.02344L74.4102 9.00391L74.4883 9.19922C74.5013 9.26432 74.5664 9.32943 74.6836 9.39453C74.8529 9.40755 74.9766 9.44661 75.0547 9.51172C75.1328 9.5638 75.2044 9.6224 75.2695 9.6875C75.3216 9.73958 75.3737 9.77865 75.4258 9.80469L75.7188 9.92188L75.5625 10.2148C75.4323 10.4492 75.2435 10.6771 74.9961 10.8984C74.7617 11.1068 74.4948 11.2826 74.1953 11.4258C74.2083 11.5039 74.2148 11.582 74.2148 11.6602C74.2279 11.7253 74.2474 11.7969 74.2734 11.875C74.3125 12.0964 74.3451 12.3242 74.3711 12.5586C74.3971 12.793 74.3971 13.0339 74.3711 13.2812L74.332 13.3594ZM68.6875 9.98047C69.0781 9.95443 69.4297 9.92839 69.7422 9.90234C70.0677 9.86328 70.4258 9.80469 70.8164 9.72656C70.7253 9.33594 70.6276 8.93229 70.5234 8.51562C70.4193 8.08594 70.3086 7.66276 70.1914 7.24609L70.0742 7.44141C69.8138 7.71484 69.5599 8.02083 69.3125 8.35938C69.0781 8.69792 68.8763 9.01693 68.707 9.31641C68.6289 9.43359 68.5508 9.55078 68.4727 9.66797C68.3945 9.78516 68.3229 9.90234 68.2578 10.0195C68.3359 10.0065 68.4076 10 68.4727 10C68.5508 10 68.6224 9.99349 68.6875 9.98047Z" fill="#252525"/>
</svg>
