<svg width="72" height="95" viewBox="0 0 72 95" fill="none" xmlns="http://www.w3.org/2000/svg">
<path fill-rule="evenodd" clip-rule="evenodd" d="M43.1606 14.359C43.1424 14.4625 43.1424 14.4625 43.2276 14.5842L44.5949 40.1173C47.4324 43.3923 50.5439 46.929 52.4254 48.9682L49.6028 22.0047L49.6211 21.9012L48.5421 11.6795C48.4933 11.3507 48.2131 9.91399 47.4581 9.35399C47.2694 9.214 46.7884 8.91575 45.5769 9.129C42.5451 9.98175 43.1971 14.152 43.1606 14.359ZM62.9243 27.5551C61.5483 26.8856 60.7995 27.5006 60.5195 27.8781L60.5013 27.9816L57.5091 50.3982L64.2517 29.7101C64.3247 29.2961 64.1968 28.2063 62.9243 27.5551ZM58.046 15.2762C57.8755 15.0327 57.5833 14.8744 57.0658 14.7832L56.5483 14.6919C54.8558 14.607 54.0038 17.0179 53.9491 17.3284L53.0426 21.8642L55.0908 41.1143L58.3932 16.9382C58.4115 16.8347 58.4905 15.7814 58.046 15.2762ZM20.0608 45.5025C20.1461 45.6243 20.1278 45.7278 20.1096 45.8313L21.3831 53.7395C21.4806 54.397 22.6746 59.7299 29.5965 58.6027C31.015 58.4259 32.9445 55.3512 34.0035 52.9767L29.217 43.8088L19.5006 44.4433C19.7563 44.8085 19.9086 45.1555 20.0608 45.5025ZM25.9783 88.806C25.7591 88.2337 22.7449 83.5403 20.1207 81.4768C11.359 74.2759 11.1329 68.9001 10.4507 66.1119L8.40416 59.5614C8.33716 59.3362 8.27015 59.111 8.30665 58.904L6.88015 45.206L6.95314 44.7921C7.00789 44.4816 7.70166 42.3628 10.8551 41.4248C9.98439 40.3108 9.60066 38.8558 9.8744 37.3034C10.6044 33.1634 14.5736 31.8356 16.5096 31.7501L32.2104 30.4634C33.5619 30.0614 36.1007 30.1889 38.0309 32.5569C38.6459 33.3056 39.6202 34.4378 40.7649 35.8136L39.6479 14.9135C39.2762 12.18 39.7746 6.93202 44.6571 5.87202C46.9948 5.32377 48.5961 5.92626 49.4363 6.60801C51.616 8.16624 51.9513 11.1067 52.0001 11.4355L52.2073 13.2862C53.2725 12.0867 54.7153 11.1672 56.7365 11.2035C58.9648 11.2762 60.1825 12.238 60.7793 13.0902C62.3685 14.9712 61.9488 17.3517 61.9123 17.5587L61.0425 23.7016C62.0288 23.5554 63.1855 23.6526 64.5615 24.3221C67.691 25.9411 68.008 28.9851 67.7525 30.4341L67.716 30.6411L57.1699 62.6109C57.0726 63.7676 56.8719 64.9061 56.5494 66.1298L51.4999 92.3457L47.981 91.7252L53.0304 65.5093L53.0486 65.4059C55.1966 57.4607 51.7076 53.6439 51.5189 53.5039C51.5189 53.5039 51.4154 53.4857 51.4336 53.3822C50.9039 52.7552 38.7137 38.9736 35.2977 34.7428C34.427 33.6289 33.2155 33.8421 33.0937 33.9273C32.972 34.0126 32.8685 33.9943 32.765 33.9761L16.8388 35.3299C16.7353 35.3116 13.8131 35.5434 13.3934 37.9238C13.2656 38.6483 13.5031 39.1171 13.6736 39.3606C14.5444 40.4746 16.9248 40.8943 17.7711 40.9368L30.1845 40.1376C30.842 40.0401 31.5117 40.4783 31.8345 41.0688L37.5892 52.0082C37.8267 52.477 37.839 53.0127 37.6442 53.512C37.5469 53.8096 34.5643 59.4189 31.9317 61.1552C28.3182 63.5403 24.6963 62.1482 24.0203 61.7814C22.2121 61.1424 20.9091 60.0589 20.1419 58.9632C18.4674 56.9605 18.0226 54.641 17.9556 54.4157L16.7673 46.6293C16.5298 46.1605 15.6469 44.5108 13.2604 44.7303C11.3244 44.8158 10.7644 45.5708 10.5209 45.7413L12.0569 58.8182L14.0364 65.1434C14.0364 65.1434 14.2139 72.0046 22.3241 78.6638C26.1082 81.412 27.2558 83.7765 28.9399 86.5354L25.9783 88.806Z" fill="#F1F1F1"/>
</svg>
