<svg width="23" height="19" viewBox="0 0 23 19" fill="none" xmlns="http://www.w3.org/2000/svg">
<path d="M10.5542 4.60464L7.1712 1.28559C6.78121 0.903111 6.06621 0.904811 5.61321 1.29069L2.83123 3.6595C2.00323 4.3641 1.76623 5.41039 2.24523 6.24929C5.10683 11.2852 9.88524 15.3523 15.8062 17.7916C16.7922 18.1987 18.0221 17.9973 18.8501 17.2927L21.6581 14.9018C22.1131 14.515 22.1141 13.9039 21.6601 13.5725L17.7401 10.7124C17.3301 10.4132 16.6932 10.4523 16.2822 10.8025L14.9182 11.9635C14.8483 12.0257 14.7564 12.0667 14.6565 12.0802C14.5566 12.0937 14.4543 12.079 14.3652 12.0383C12.1356 10.947 10.2862 9.37305 9.00519 7.47662C8.95722 7.40076 8.93985 7.31362 8.95575 7.22857C8.97164 7.14351 9.01993 7.06523 9.09319 7.00575L10.4532 5.84897C10.8652 5.49709 10.9102 4.95312 10.5542 4.60379V4.60464Z" stroke="#62D2D1" stroke-width="2" stroke-linecap="round" stroke-linejoin="round"/>
</svg>
